<svg xmlns="http://www.w3.org/2000/svg" height="115.123" version="1.2" viewBox="0 0 48.327 86.342" width="64.436"><path fill="green" d="M0 0h48.327v86.04H0z"/><g transform="rotate(90.065 22.776 22.722)"><text font-size="3.341" x="10.8" y="21.6" font-family="OCRA" fill="#fff" stroke-width="0">CLK</text></g><g transform="rotate(90.065 22.776 22.722)"><text font-size="3.341" x="10.8" y="28.8" font-family="OCRA" fill="#fff" stroke-width="0">DAT</text></g><g transform="rotate(90.065 22.776 22.722)"><text font-size="3.341" x="10.8" y="14.4" font-family="OCRA" fill="#fff" stroke-width="0">GND</text></g><g transform="rotate(90.065 22.776 22.722)"><text font-size="3.341" x="10.8" y="7.2" font-family="OCRA" fill="#fff" stroke-width="0">VCC</text></g><g transform="rotate(90.065 22.776 22.722)"><text font-size="3.341" x="10.8" y="36" font-family="OCRA" fill="#fff" stroke-width="0">CS</text></g><g transform="rotate(90.065 22.437 22.384)"><path stroke="#fff" stroke-width=".432" stroke-linecap="round" d="M2.16 14.4v-3.6M2.16 10.8L3.96 9M3.96 9h3.6M7.56 9l1.8 1.8M3.96 23.4l-1.8-1.8M2.16 21.6V18M2.16 18l1.8-1.8M3.96 16.2h3.6M7.56 16.2l1.8 1.8M9.36 18v3.6M9.36 21.6l-1.8 1.8M2.16 14.4l1.8 1.8M7.56 16.2l1.8-1.8M9.36 10.8v3.6M2.16 36v-3.6M2.16 32.4l1.8-1.8M3.96 30.6h3.6M7.56 30.6l1.8 1.8M3.96 30.6l-1.8-1.8M2.16 28.8v-3.6M2.16 25.2l1.8-1.8M3.96 23.4h3.6M7.56 23.4l1.8 1.8M9.36 25.2v3.6M9.36 28.8l-1.8 1.8M3.96 37.8h3.6M2.16 36l1.8 1.8M7.56 37.8l1.8-1.8M9.36 32.4V36M2.16 7.2V3.6M2.16 3.6l1.8-1.8M3.96 1.8h3.6M7.56 1.8l1.8 1.8M2.16 7.2L3.96 9M7.56 9l1.8-1.8M9.36 3.6v3.6"/></g><g transform="rotate(90.065 24.3 24.245)"/><circle cx="21.484" cy="-6.871" r="1.512" transform="rotate(90.065)" fill="none" stroke="#9a916c" stroke-width=".72"/><circle cx="5.681" cy="-10.646" r="1.8" transform="rotate(90.065)" fill="none" stroke="#9a916c" stroke-width=".72"/><path d="M14.778 7.497l-8.28-.009.004-3.6 8.28.01-.004 3.6M12.44 5.694c.003-2.4-3.597-2.405-3.6-.004-.003 2.4 3.597 2.404 3.6.004z"/><circle cx="5.681" cy="-17.846" r="1.8" transform="rotate(90.065)" fill="none" stroke="#9a916c" stroke-width=".72"/><path d="M21.978 7.506l-8.28-.01.004-3.6 8.28.01-.004 3.6M19.64 5.703c.002-2.4-3.598-2.404-3.6-.004-.003 2.4 3.597 2.404 3.6.004z"/><circle cx="5.681" cy="-25.046" r="1.8" transform="rotate(90.065)" fill="none" stroke="#9a916c" stroke-width=".72"/><path d="M29.178 7.514l-8.28-.01.004-3.6 8.28.01-.004 3.6M26.84 5.71a1.8 1.8 0 1 0-3.6-.004 1.8 1.8 0 1 0 3.6.004z"/><circle cx="5.681" cy="-32.246" r="1.8" transform="rotate(90.065)" fill="none" stroke="#9a916c" stroke-width=".72"/><path d="M36.378 7.522l-8.28-.01.004-3.6 8.28.01-.004 3.6M34.04 5.719a1.8 1.8 0 1 0-3.6-.004 1.8 1.8 0 1 0 3.6.004z"/><circle cx="5.681" cy="-39.446" r="1.8" transform="rotate(90.065)" fill="none" stroke="#9a916c" stroke-width=".72"/><path d="M43.578 7.53l-8.28-.01.004-3.6 8.28.01-.004 3.6M41.24 5.727a1.8 1.8 0 1 0-3.6-.004 1.8 1.8 0 1 0 3.6.004z"/><ellipse cx="21.274" cy="-43.898" transform="rotate(90.078) skewX(.025)" rx="1.244" ry="1.512" fill="none" stroke="#9a916c" stroke-width=".653"/><ellipse cx="21.274" cy="-36.698" transform="rotate(90.078) skewX(.025)" rx="1.244" ry="1.512" fill="none" stroke="#9a916c" stroke-width=".653"/><rect height="4.649" rx="1.92" width="34.676" x="-77.737" y="-43.208" fill="#ccc" transform="matrix(1.25 0 0 -1.25 100.171 16.704)"/><circle cx="51.789" cy="93.919" r="10.744" fill="#848484" transform="scale(-1.66699 1.66699) rotate(-.065 -47523.959 58977)"/><path d="M24.25 84.657a18.094 18.094 0 0 0 6.073-1.03.303.303 0 0 0 .184-.386.3.3 0 0 0-.384-.184 17.777 17.777 0 0 1-8.732.76.301.301 0 1 0-.099.594c.972.165 1.966.245 2.958.246z" fill="#c6c6c6" opacity=".5"/><path d="M40.26 65.244a6.093 6.093 0 0 0-6.085-6.1 6.08 6.08 0 0 0-5.146 2.83 6.088 6.088 0 0 1 11.61 2.58 6.07 6.07 0 0 1-.952 3.254c.363-.78.572-1.647.573-2.564zM19.756 65.22a6.094 6.094 0 0 0-6.086-6.099 6.082 6.082 0 0 0-5.148 2.83 6.093 6.093 0 0 1 5.527-3.52 6.093 6.093 0 0 1 6.084 6.099 6.044 6.044 0 0 1-.953 3.255c.364-.78.575-1.647.576-2.564z" fill="#020202" opacity=".43"/><g fill="#999"><path d="M37.37 62.984c0-1.358-1.22-2.46-2.727-2.462-1.507-.002-2.73 1.096-2.732 2.456l-.003 2.901 5.456.006.005-2.9zM16.864 62.961c.002-1.358-1.219-2.46-2.727-2.462-1.507-.002-2.731 1.096-2.733 2.456l-.003 2.9 5.456.007.003-2.9h.004z"/></g><path fill="#ccc" d="M16.86 65.859l-5.458-.006-.015 13.088 5.458.006zM37.366 65.882l-5.456-.006-.015 13.088 5.456.007z"/><path d="M12.536 48.204v-.857l23.69.027v.857l6.767 6.887-.027 23.655c-.003 2.807-2.25 5.1-4.99 5.097-2.739-.004-6.409-4.697-13.181-4.704-6.775-.008-10.576 4.677-13.47 4.673h-.522c-2.894-.003-5.257-2.3-5.254-5.108l.026-23.656 6.96-6.87zm18.961 21.193l-.01 9.386 6.276.007.01-9.386a5.882 5.882 0 0 0 2.764-4.98 5.896 5.896 0 1 0-11.791-.014 5.875 5.875 0 0 0 2.751 4.987zm-20.505-.024l-.01 9.387 6.273.007.011-9.386a5.883 5.883 0 0 0 2.765-4.98 5.895 5.895 0 1 0-11.79-.014 5.873 5.873 0 0 0 2.75 4.986z" fill="#ccc"/><path opacity=".3" fill="#fff" d="M36.225 47.374l-23.69-.026v.856l23.69.027z"/><path d="M34.648 58.52a5.895 5.895 0 0 1 5.887 5.903 5.879 5.879 0 0 1-2.762 4.98l-.01 9.387-6.277-.007.01-9.387a5.882 5.882 0 0 1-2.753-4.986 5.899 5.899 0 0 1 5.905-5.89zM14.14 58.497a5.894 5.894 0 0 1 5.89 5.903 5.878 5.878 0 0 1-2.765 4.98l-.011 9.387-6.276-.007.01-9.387a5.884 5.884 0 0 1-2.752-4.986 5.9 5.9 0 0 1 5.904-5.89z" fill="none"/><path d="M42.992 55.117l-.026 23.656a5.143 5.143 0 0 1-.692 2.57l.03-26.84z" fill="#898989"/><path d="M42.992 55.117l-.026 23.656a5.143 5.143 0 0 1-.692 2.57l.03-26.84z" opacity=".3" fill="#fff"/><path d="M5.574 55.075l.69-.598-.03 26.764a4.941 4.941 0 0 1-.686-2.512z" fill="#898989"/><path d="M5.574 55.075l.69-.598-.03 26.764a4.941 4.941 0 0 1-.686-2.512z" opacity=".3" fill="#fff"/><g><path d="M23.994 51.044l-.004 3.264-3.144-.003v.533l3.143.004-.003 3.29h.573l.003-3.29 3.144.004.001-.534-3.144-.003.004-3.265z" fill="#fff" opacity=".5"/></g><g><path d="M32.672 66.072l3.94.004a.301.301 0 1 0 0-.601l-3.94-.005a.303.303 0 0 0-.302.3.3.3 0 0 0 .302.302z" fill="#b3b3b3"/></g><g><path d="M12.162 66.049l3.94.004a.301.301 0 1 0 0-.601l-3.94-.005a.301.301 0 0 0 0 .602z" fill="#b3b3b3"/></g><path d="M37.363 62.814c.001-1.256-1.232-2.281-2.72-2.283-1.488-.002-2.713 1.018-2.714 2.277.001-1.083 1.4-1.964 2.714-1.962 1.314.001 2.72.885 2.72 1.968zM16.853 62.791c.002-1.256-1.232-2.281-2.72-2.283-1.49-.002-2.713 1.018-2.715 2.277.002-1.083 1.4-1.964 2.715-1.962 1.313.001 2.721.885 2.72 1.968z" opacity=".3" fill="#fff"/><g><path d="M52.26 20.085c1.452 2.489 4.063 1.74 6.405 2.357M52.26 27.235c1.452-2.488 4.063-1.74 6.405-2.357" fill="#ccc" fill-rule="evenodd" stroke="#d1d1d1" stroke-width="1.6" stroke-linecap="round" transform="matrix(-.00113 .82262 -1 -.00093 63.962 -21.656)"/><g transform="matrix(-.64327 -.0006 .00072 -.52916 45.112 44.81)"><ellipse cx="7.728" cy="34.992" rx="6.4" ry="3.403" fill="#727272"/><g fill="#b5b5b5"><path d="M13.885 34.481c0 1.877-2.754 3.402-6.158 3.402-1.7 0-3.241-.381-4.356-.997-1.115-.616-1.804-1.467-1.804-2.405 0-.939.69-1.791 1.804-2.407 1.115-.616 2.655-.998 4.356-.998 1.702 0 3.241.382 4.355.998 1.114.616 1.803 1.467 1.803 2.407z"/><path d="M2.504 17.868c.557-.308 4.373-.499 5.223-.499.397 0 2.3.042 2.647.117.398.086 2.278.217 2.576.382.557.308.9 8.567.9 9.036 0 .729-.829 9.185-1.998 9.427-.168.034-1.865.062-2.046.08-.181.018-1.89.027-2.08.027-.851 0-4.666-.19-5.223-.498-.557-.309-.902-8.566-.902-9.036.001-.469.346-8.728.903-9.036z"/><path d="M1.637 3.662h12.181v31.33H1.637V19.327z"/></g><path d="M1.672 3.289l-.105 31.192s-.204.875.904 1.773V5.36c-.814-.404-.799-2.071-.799-2.071z" fill="#404040"/><path d="M2.471 5.36l-.17 30.862c.764.6 1.062.813 1.844 1.076l.002-30.842C3.223 5.945 2.471 5.36 2.471 5.36z" fill="#8c8c8c"/><path d="M7.291 7.051l-.14 30.814s3.188.062 3.808-.65l.004-30.69c-1.005.526-3.672.526-3.672.526z" fill="#dbdbdb"/><path d="M4.147 6.42l-.001 30.961c1.412.568 2.095.603 3.582.587l.12-30.964c-1.641.26-3.701-.584-3.701-.584z" fill="#b5b5b5"/><ellipse cx="7.727" cy="3.647" rx="6.091" ry="3.403" fill="#bfbfbf" transform="translate(-.009 .02)"/><path d="M2.169 3.628c0-1.325 1.959-2.435 2.603-2.758C4.085.918 2.05 2.138 2.05 3.643c0 1.534 3.331 2.781 4.038 2.781h2.39c-3.31 0-6.309-1.433-6.309-2.796z" fill="#fff" opacity=".4"/><path d="M10.612.718c.645.307 2.713 1.334 2.713 2.571 0 1.262-1.251 2.325-1.922 2.6 0 0-2.933.535-2.925.535 2.479.098 4.966-1.682 4.966-3.122 0-1.406-2.143-2.538-2.832-2.584z" fill="#878787" opacity=".4"/></g></g><g><g transform="rotate(-179.935 16.013 22.086)"><path fill="#303030" d="M0 2.16h28.8V21.6H0z"/><path fill="#3d3d3d" d="M0 2.16h28.8v1.771H0z"/><path d="M0 19.829h28.8V21.6H0z"/><path fill="#141414" d="M28.8 2.16l-.54 1.771V19.83l.54 1.771z"/><path fill="#1f1f1f" d="M0 2.16l.54 1.771V19.83L0 21.6z"/><path fill="#1c1c1c" d="M.403 9.778v2.102H3.6v-3.6L.54 8.251z"/><path fill="#383838" d="M3.6 11.88H.403v2.102l.137 1.534H3.6z"/><path d="M.403 9.778v4.197a2.12 2.12 0 0 0 1.887-2.102c0-1.095-.821-1.973-1.887-2.095z" fill="#262626"/><path d="M.54 3.931v4.313a3.7 3.7 0 0 1 3.017 3.629A3.702 3.702 0 0 1 .54 15.509v.007h3.6V3.931z" fill="#303030"/><circle cx="4.68" cy="16.898" r="1.483" fill="#212121"/><path fill="#ccc" d="M2.52 20.635h2.16v3.125H2.52z"/><path fill="#ccc" d="M2.52 21.6h2.16v2.16H2.52z"/><path fill="#ccc" d="M4.68 22.075l1.44-.662v-.778h-3.6v1.44zM2.52 0h2.16v3.125H2.52z"/><path fill="#ccc" d="M2.52 0h2.16v2.16H2.52z"/><path fill="#ccc" d="M4.68 1.685H2.52v1.44h3.6v-.778zM24.12 20.635h2.16v3.125h-2.16z"/><path fill="#ccc" d="M24.12 21.6h2.16v2.16h-2.16z"/><path fill="#ccc" d="M24.12 22.075h2.16v-1.44h-3.6v.778zM24.12 0h2.16v3.125h-2.16z"/><path fill="#ccc" d="M24.12 0h2.16v2.16h-2.16z"/><path fill="#ccc" d="M24.12 1.685l-1.44.662v.778h3.6v-1.44zM9.72 20.635h2.16v3.125H9.72z"/><path fill="#ccc" d="M9.72 21.6h2.16v2.16H9.72z"/><path fill="#ccc" d="M9.72 22.075h2.16l1.44-.662v-.778H8.28v.778zM9.72 0h2.16v3.125H9.72z"/><path fill="#ccc" d="M9.72 0h2.16v2.16H9.72z"/><path fill="#ccc" d="M11.88 1.685H9.72l-1.44.662v.778h5.04v-.778zM16.92 20.635h2.16v3.125h-2.16z"/><path fill="#ccc" d="M16.92 21.6h2.16v2.16h-2.16z"/><path fill="#ccc" d="M16.92 22.075h2.16l1.44-.662v-.778h-5.04v.778zM16.92 0h2.16v3.125h-2.16z"/><path fill="#ccc" d="M16.92 0h2.16v2.16h-2.16z"/><path fill="#ccc" d="M19.08 1.685h-2.16l-1.44.662v.778h5.04v-.778z"/></g></g><g transform="matrix(1.40089 .00838 -.00768 1.52749 -65.214 21.319)"><text font-size="4.176" x="50.4" y="5.76" font-family="OCRA" fill="#fff" stroke-width="0">DS1302</text></g><g transform="matrix(1.31072 .0042 -.00385 1.42964 -60.376 22.524)"><text font-size="4.176" x="50.4" y="10.8" font-family="OCRA" fill="#fff" stroke-width="0">RTC</text></g></svg>